# xmcd
# 
# Track frame offsets:
#     199
#     17708
#     36132
#     56979
#     75738
#     91131
#     107224
#     125780
#     147710
#     165387
#     182864
#     195995
#     222528
#     239210
#     254071
#     271402
#     289294
# 
# Disc length: 4088
# 
# Revision: 1
# Processed by: cddbd v1.5.2PL0 Copyright (c) Steve Scherf et al.
# Submitted via: fre:ac v1.0.31
# 
DISCID=120ff611
DTITLE=Divers - musiques jazz and blues pour petites oreilles
DYEAR=0
DGENRE=
TTITLE0=GoldenGate Quartet - Jezebel
TTITLE1=Original Dixieland Jazz Band - Tiger Rag
TTITLE2=Scott Joplin - The entertainer
TTITLE3=Stuff Smith and His Onyx Club Band - You're a viper
TTITLE4=Mudy Waters - Last Time i fool around with you
TTITLE5=Cab Calloway - The Jumpin' jive
TTITLE6=Glenn Miller - In the mood
TTITLE7=Mintown's playhouse band - Nice work if you can get it
TTITLE8=Cootie Williams - Concerto for coolie
TTITLE9=Dizzie Gillespie - Salt Peanuts
TTITLE10=Lionel Hampton - When lights are low
TTITLE11=Ella Fitzgerald and Louis Amstrong - Stompin' at the savoy
TTITLE12=Django Reinhardt - Minor swing
TTITLE13=Nat King Cole - Sweet lorraine
TTITLE14=Billie Holiday - The man i love
TTITLE15=Nina Simone - My baby just care for me
TTITLE16=compil - Now's the time
EXTD=
EXTT0=
EXTT1=
EXTT2=
EXTT3=
EXTT4=
EXTT5=
EXTT6=
EXTT7=
EXTT8=
EXTT9=
EXTT10=
EXTT11=
EXTT12=
EXTT13=
EXTT14=
EXTT15=
EXTT16=
PLAYORDER=
